<mxfile host="app.diagrams.net" modified="2023-11-16T15:57:29.414Z" agent="Mozilla/5.0 (Windows NT 10.0; WOW64) AppleWebKit/537.36 (KHTML, like Gecko) Chrome/87.0.4280.141 Safari/537.36" version="22.1.2" etag="_UsdnTnZzolFdSfJdpu5" type="github">
  <diagram name="第 1 页" id="xDHxzcdvveRaYOOqxqJp">
    <mxGraphModel>
      <root>
        <mxCell id="0" />
        <mxCell id="1" parent="0" />
      </root>
    </mxGraphModel>
  </diagram>
</mxfile>
